<?xml version="1.0"?>
<svg xmlns="http://www.w3.org/2000/svg" xmlns:xlink="http://www.w3.org/1999/xlink" xmlns:svgjs="http://svgjs.com/svgjs" version="1.1" width="512" height="512" x="0" y="0" viewBox="0 0 24 24" style="enable-background:new 0 0 512 512" xml:space="preserve" class=""><g><path xmlns="http://www.w3.org/2000/svg" d="m17.5 11c0 .55-.45 1-1 1-.15 0-.29-.03-.42-.09l-4.08-1.91-4.08 1.91c-.13.06-.27.09-.42.09-.55 0-1-.45-1-1 0-.15.03-.28.09-.41l4.5-10c.15-.35.5-.59.91-.59s.76.24.91.59l4.5 10c.06.13.09.26.09.41z" fill="#ffffff" data-original="#000000" style=""/><path xmlns="http://www.w3.org/2000/svg" d="m12 24c-6.065 0-11-4.935-11-11 0-3.335 1.484-6.444 4.073-8.529.431-.348 1.06-.278 1.406.151.346.43.278 1.06-.152 1.406-2.114 1.704-3.327 4.244-3.327 6.972 0 4.962 4.037 9 9 9s9-4.038 9-9c0-2.728-1.213-5.268-3.327-6.971-.431-.346-.498-.976-.152-1.406.348-.429.977-.499 1.406-.151 2.589 2.084 4.073 5.193 4.073 8.528 0 6.065-4.935 11-11 11z" fill="#ffffff" data-original="#000000" style=""/></g></svg>
